<?xml version="1.0" encoding="utf-8"?>
<!-- Generator: Adobe Illustrator 18.1.1, SVG Export Plug-In . SVG Version: 6.00 Build 0)  -->
<svg version="1.1" id="Layer_1" xmlns="http://www.w3.org/2000/svg" xmlns:xlink="http://www.w3.org/1999/xlink" x="0px" y="0px"
	 viewBox="0 1417.3 2834.6 2834.6" enable-background="new 0 1417.3 2834.6 2834.6" xml:space="preserve">
<g>
	<path fill="#EC661B" d="M2834.6-49517.8c0,345.5-274.6,620.1-620.1,620.1H620.1c-345.5,0-620.1-274.6-620.1-620.1v-1594.5
		c0-345.5,274.6-620.1,620.1-620.1h1594.5c345.5,0,620.1,274.6,620.1,620.1V-49517.8z"/>
	<g>
		<g>
			<path fill="#FFFFFF" d="M1240.2-49420.4c-44.3,0-88.6-17.7-115.2-53.1l-628.9-815l230.3-177.2l496.1,655.5l877-1346.5
				l239.2,159.4l-992.1,1523.6C1337.6-49446.9,1293.3-49420.4,1240.2-49420.4C1249-49420.4,1249-49420.4,1240.2-49420.4z"/>
		</g>
	</g>
</g>
<g>
	<path fill="#A9A9AA" d="M2834.6-67411.5c0,345.5-274.6,620.1-620.1,620.1H620.1C274.6-66791.4,0-67066,0-67411.5V-69006
		c0-345.5,274.6-620.1,620.1-620.1h1594.5c345.5,0,620.1,274.6,620.1,620.1V-67411.5z M2657.5-69006c0-248-194.9-442.9-442.9-442.9
		H620.1c-248,0-442.9,194.9-442.9,442.9v1594.5c0,248,194.9,442.9,442.9,442.9h1594.5c248,0,442.9-194.9,442.9-442.9V-69006z"/>
</g>
<g>
	<path fill="#676767" d="M2834.6-14261.8c0,345.5-274.6,620.1-620.1,620.1H620.1c-345.5,0-620.1-274.6-620.1-620.1v-1594.5
		c0-345.5,274.6-620.1,620.1-620.1h1594.5c345.5,0,620.1,274.6,620.1,620.1V-14261.8z M2657.5-15856.3
		c0-248-194.9-442.9-442.9-442.9H620.1c-248,0-442.9,194.9-442.9,442.9v1594.5c0,248,194.9,442.9,442.9,442.9h1594.5
		c248,0,442.9-194.9,442.9-442.9V-15856.3z"/>
</g>
<g>
	<path fill="#E3E3E2" d="M2834.6,56781.6c0,345.5-274.6,620.1-620.1,620.1H620.1c-345.5,0-620.1-274.6-620.1-620.1v-1594.5
		c0-345.5,274.6-620.1,620.1-620.1h1594.5c345.5,0,620.1,274.6,620.1,620.1V56781.6z"/>
	<g>
		<g>
			<path fill="#FFFFFF" d="M1240.2,56879c-44.3,0-88.6-17.7-115.2-53.1l-628.9-815l230.3-177.2l496.1,655.5l877-1346.5l239.2,159.4
				l-992.1,1523.6C1337.6,56852.4,1293.3,56879,1240.2,56879C1249,56879,1249,56879,1240.2,56879z"/>
		</g>
	</g>
</g>
<g>
	<path fill="#E3E3E3" d="M2834.6,38887.8c0,345.5-274.6,620.1-620.1,620.1H620.1c-345.5,0-620.1-274.6-620.1-620.1v-1594.5
		c0-345.5,274.6-620.1,620.1-620.1h1594.5c345.5,0,620.1,274.6,620.1,620.1V38887.8z M2657.5,37293.4c0-248-194.9-442.9-442.9-442.9
		H620.1c-248,0-442.9,194.9-442.9,442.9v1594.5c0,248,194.9,442.9,442.9,442.9h1594.5c248,0,442.9-194.9,442.9-442.9V37293.4z"/>
</g>
<g>
	<path fill="#CC5416" d="M2834.6,3631.9c0,345.5-274.6,620.1-620.1,620.1H620.1C274.6,4252,0,3977.4,0,3631.9V2037.4
		c0-345.5,274.6-620.1,620.1-620.1h1594.5c345.5,0,620.1,274.6,620.1,620.1V3631.9z"/>
	<g>
		<g>
			<path fill="#FFFFFF" d="M1240.2,3729.3c-44.3,0-88.6-17.7-115.2-53.1l-628.9-815l230.3-177.2l496.1,655.5l877-1346.5l239.2,159.4
				l-974.4,1514.8C1337.6,3702.8,1293.3,3729.3,1240.2,3729.3C1249,3729.3,1249,3729.3,1240.2,3729.3z"/>
		</g>
	</g>
</g>
</svg>
