<?xml version="1.0" encoding="utf-8"?>
<!-- Generator: Adobe Illustrator 16.0.0, SVG Export Plug-In . SVG Version: 6.00 Build 0)  -->
<!DOCTYPE svg PUBLIC "-//W3C//DTD SVG 1.1//EN" "http://www.w3.org/Graphics/SVG/1.1/DTD/svg11.dtd">
<svg version="1.1" id="Layer_1" xmlns="http://www.w3.org/2000/svg" xmlns:xlink="http://www.w3.org/1999/xlink" x="0px" y="0px"
	 width="32px" height="31.957px" viewBox="0 0 32 31.957" enable-background="new 0 0 32 31.957" xml:space="preserve">
<g>
	<g>
		<path fill="#293378" d="M15.482,8.249c-0.793,0-1.438-0.645-1.438-1.437c0-0.793,0.646-1.438,1.438-1.438
			c0.794,0,1.434,0.645,1.434,1.438C16.916,7.604,16.276,8.249,15.482,8.249z"/>
	</g>
	<g>
		<rect x="12.964" y="24.625" fill="#293378" width="6.032" height="1.607"/>
	</g>
	<g>
		<path fill="#293378" d="M16.785,25.43h-1.609V14.369h-2.212v-1.608h3.016c0.443,0,0.805,0.36,0.805,0.804V25.43z"/>
	</g>
	<g>
		<path fill="#293378" d="M15.98,31.957c-5.33,0-9.908-1.395-12.245-3.732C1.396,25.887,0,21.309,0,15.979
			c0-5.33,1.396-9.908,3.735-12.246C6.072,1.395,10.65,0,15.98,0c5.331,0,9.907,1.396,12.245,3.733
			c5.034,5.034,5.034,19.455,0,24.492C25.886,30.562,21.309,31.957,15.98,31.957z M15.98,1.608c-4.839,0-9.095,1.25-11.108,3.263
			c-2.013,2.013-3.264,6.268-3.263,11.108c0,4.839,1.25,9.096,3.263,11.108C6.885,29.1,11.141,30.35,15.98,30.35
			c4.838,0,9.094-1.25,11.107-3.263c4.359-4.36,4.359-17.857,0-22.216C25.076,2.858,20.82,1.608,15.98,1.608z"/>
	</g>
</g>
</svg>
