<svg xmlns="http://www.w3.org/2000/svg" xmlns:xlink="http://www.w3.org/1999/xlink" width="130px" height="24px" viewBox="0 0 130 24" version="1.1">
                        <g id="Artboard" stroke="none" stroke-width="1" fill="none" fill-rule="evenodd">
                            <g id="other/rfs2-rabobank-logo" fill="#000099">
                                <path d="M76.9282216,15.4878318 C76.3762375,19.0801436 74.5543581,20.9630377 72.3685453,20.9630377 C70.9802887,20.9630377 70.1816263,19.9711812 70.4200083,18.4363662 L71.1876976,13.564948 C71.4836009,11.7603436 72.5471935,10.3471872 74.437103,10.3471872 C76.5327621,10.3466241 77.4945861,11.7992068 76.9282216,15.4878318 Z M69.4449101,22.6465467 C69.7413665,22.6465467 70.449322,23.9093192 72.7518369,23.9093192 C77.6549823,23.9093192 80.4608093,20.3012368 81.2279455,15.639342 C82.2041499,9.89603623 79.4575035,7.27868391 76.0012423,7.27868391 C74.3768162,7.27868391 73.1616768,7.42850438 72.2767323,7.90950693 L73.6058083,5.68434189e-14 L69.5334045,5.68434189e-14 L65.4892084,23.6248856 L68.5588594,23.6248856 C68.5588594,23.6248856 69.0029909,22.6459834 69.474777,22.6459834 L69.4449101,22.6459834 L69.4449101,22.6465467 Z M112.78064,12.5714018 C113.401207,8.99373401 112.101445,7.24883246 108.291759,7.24883246 C105.456619,7.24883246 104.340482,8.51949027 103.278549,9.60540705 L103.38253,7.61042923 L99.6110073,7.63464833 L99.3184226,10.5876886 L97.133716,23.6260121 L101.264194,23.6260121 L102.592717,15.1577762 C103.065056,12.2402197 105.044566,10.0148788 106.904609,10.0148788 C108.971507,10.0148788 108.946065,11.2185117 108.622507,13.0529675 L106.821092,23.6260121 L110.920044,23.6260121 L112.78064,12.5714018 Z M130,7.27924714 L125.187008,7.27924714 L119.654446,13.2517894 L119.574248,13.2399615 L121.788822,0.0152073408 L117.772833,0.0152073408 L113.726978,23.6260121 L117.8027,23.6260121 L118.218071,21.2632419 L119.043835,16.0899298 C121.198674,16.0899298 122.410495,16.3315576 123.35462,20.6915585 L124.005054,23.6260121 L128.169271,23.6260121 C128.169271,23.6260121 127.135545,19.15787 126.454138,17.4157847 C125.746183,15.5790758 124.97075,14.3681209 123.315904,14.0375021 L130,7.27924714 Z M11.6541654,13.0749337 C14.6364282,12.413696 16.1839748,9.95404942 16.5976864,8.36178452 C17.6601728,3.96967919 15.7409495,0.541268686 10.2482099,0.602661285 L3.951277,0.597028936 L0,23.6260121 L4.10392992,23.6260121 L5.727803,14.3771327 C9.51259982,14.2712445 9.97277094,15.210157 10.6868105,19.6985755 L11.3361385,23.6260121 L15.5932744,23.6260121 C15.0910684,21.2508507 14.7652983,19.0080496 14.3526929,17.2034451 C13.9102207,15.3081599 13.219964,13.826289 11.4467566,13.1228087 L11.6541654,13.0749337 Z M12.4832477,7.58677337 C12.1276107,9.63244233 10.5728739,11.0698177 8.65254443,11.0698177 L6.23111516,11.0698177 L7.48607702,3.79901903 L9.68682326,3.78888081 C12.2990687,3.78888081 12.8079117,5.54223088 12.4832477,7.58677337 Z M31.0399799,11.9400155 C31.6301273,8.45133886 29.7982922,7.24826923 26.1069677,7.24826923 C21.5008318,7.24826923 19.4920078,9.47529981 19.4920078,9.47529981 L20.9095782,11.9107273 C20.9095782,11.9107273 22.3990504,10.1359743 25.3702514,10.1359743 C27.0284161,10.1359743 27.0632608,10.9932177 26.9045239,11.9107273 L26.5798599,13.9851212 C20.6429887,13.8341743 17.6015452,15.126235 16.9223504,19.0976039 C16.3609637,22.3457793 18.7530792,23.9115721 21.4399918,23.9115721 C22.8276954,23.9115721 23.9510217,23.6992326 25.3094115,22.496163 C25.576001,23.2790594 26.047787,23.6924738 26.5793068,23.7825913 C27.4360436,23.9633897 28.9127947,23.7589355 29.35582,23.4283166 C29.3265062,22.9473141 29.35582,21.714393 29.858026,18.8278144 L31.0399799,11.9400155 Z M26.1667014,16.1806106 C25.508524,20.9331863 24.8879567,21.4079932 22.6407508,21.4079932 C21.1053722,21.4079932 20.5334769,20.3350309 20.7956416,18.9280702 C21.1518318,17.0158879 22.5716146,16.1806106 26.1667014,16.1806106 Z M96.1652549,11.9400155 C96.7554022,8.45133886 94.922461,7.24826923 91.2316895,7.24826923 C86.6261067,7.24826923 84.6161766,9.47529981 84.6161766,9.47529981 L86.0331939,11.9107273 C86.0331939,11.9107273 87.5226661,10.1359743 90.4944202,10.1359743 C92.1525848,10.1359743 92.1879826,10.9932177 92.0286926,11.9107273 L91.7040286,13.9851212 C85.7671575,13.8341743 82.725714,15.126235 82.0465191,19.0976039 C81.4845794,22.3457793 83.8778011,23.9115721 86.5641606,23.9115721 C87.9518641,23.9115721 89.0746374,23.6992326 90.4341333,22.496163 C90.6996167,23.2790594 91.1719558,23.6924738 91.7029224,23.7825913 C92.5602124,23.9633897 94.0364104,23.7589355 94.4799888,23.4283166 C94.4501219,22.9473141 94.4799888,21.714393 94.9816417,18.8278144 L96.1652549,11.9400155 Z M91.2908702,16.1806106 C90.6332458,20.9331863 90.0132316,21.4079932 87.7660258,21.4079932 C86.229541,21.4079932 85.6576456,20.3350309 85.9203635,18.9280702 C86.2771067,17.0158879 87.6963364,16.1806106 91.2908702,16.1806106 Z M39.2793659,23.9093192 C44.1825113,23.9093192 46.9883383,20.3012368 47.7554745,15.639342 C48.7311258,9.89603623 45.9833733,7.27868391 42.5282182,7.27868391 C40.9037921,7.27868391 39.7317938,7.42850438 38.8147701,7.90950693 L40.1449522,0 L36.0603804,0 L32.014525,23.6248856 L35.0863884,23.6248856 C35.0863884,23.6248856 35.5288607,22.6459834 35.9729922,22.6459834 C36.2672362,22.6465467 36.976298,23.9093192 39.2793659,23.9093192 Z M40.9922865,10.3466241 C43.0896049,10.3466241 43.9800802,11.7885053 43.4845113,15.4878318 C42.9784337,19.2677008 41.1106478,20.9630377 38.8955212,20.9630377 C37.5078177,20.9630377 36.7102615,19.9711812 36.9757449,18.4363662 L37.7445404,13.564948 C38.0393375,11.7603436 39.1029301,10.3471873 40.9629727,10.3471873 L40.9922865,10.3471873 L40.9922865,10.3466241 Z M49.4761384,16.9218277 C50.1072144,10.9087325 52.7697911,7.18912957 59.0988032,7.18912957 C63.7989644,7.18912957 65.3525951,10.8411443 64.721519,14.764075 C63.7115762,21.0447068 61.3128236,24 55.2880111,24 C51.3854061,24.0005632 49.0734887,20.7619629 49.4761384,16.9218277 Z M60.4372817,15.0580836 C60.7387159,13.3965408 61.0595083,10.1669522 58.2487034,10.1669522 C56.3599001,10.1669522 54.5960952,11.4702776 53.8035168,16.0431813 C53.3201159,18.83401 53.8494233,21.073995 56.0380016,21.073995 C57.6391979,21.0734317 59.5893943,19.7295534 60.4372817,15.0580836 Z" id="shape"></path>
                            </g>
                        </g>
                    </svg>