<?xml version="1.0" encoding="utf-8"?>
<!-- Generator: Adobe Illustrator 18.1.1, SVG Export Plug-In . SVG Version: 6.00 Build 0)  -->
<svg version="1.1" id="Layer_1" xmlns="http://www.w3.org/2000/svg" xmlns:xlink="http://www.w3.org/1999/xlink" x="0px" y="0px"
	 viewBox="0 1417.3 2834.6 2834.6" enable-background="new 0 1417.3 2834.6 2834.6" xml:space="preserve">
<g>
	<path fill="#EC661B" d="M2834.6,21525.6c0,345.5-274.6,620.1-620.1,620.1H620.1c-345.5,0-620.1-274.6-620.1-620.1v-1594.5
		c0-345.5,274.6-620.1,620.1-620.1h1594.5c345.5,0,620.1,274.6,620.1,620.1V21525.6z"/>
	<g>
		<g>
			<path fill="#FFFFFF" d="M1240.2,21623.1c-44.3,0-88.6-17.7-115.2-53.1l-628.9-815l230.3-177.2l496.1,655.5l877-1346.5
				l239.2,159.4l-992.1,1523.6C1337.6,21596.5,1293.3,21623.1,1240.2,21623.1C1249,21623.1,1249,21623.1,1240.2,21623.1z"/>
		</g>
	</g>
</g>
<g>
	<path fill="#A9A9AA" d="M2834.6,3631.9c0,345.5-274.6,620.1-620.1,620.1H620.1C274.6,4252,0,3977.4,0,3631.9V2037.4
		c0-345.5,274.6-620.1,620.1-620.1h1594.5c345.5,0,620.1,274.6,620.1,620.1V3631.9z M2657.5,2037.4c0-248-194.9-442.9-442.9-442.9
		H620.1c-248,0-442.9,194.9-442.9,442.9v1594.5c0,248,194.9,442.9,442.9,442.9h1594.5c248,0,442.9-194.9,442.9-442.9V2037.4z"/>
</g>
<g>
	<path fill="#676767" d="M2834.6,56781.6c0,345.5-274.6,620.1-620.1,620.1H620.1c-345.5,0-620.1-274.6-620.1-620.1v-1594.5
		c0-345.5,274.6-620.1,620.1-620.1h1594.5c345.5,0,620.1,274.6,620.1,620.1V56781.6z M2657.5,55187.1c0-248-194.9-442.9-442.9-442.9
		H620.1c-248,0-442.9,194.9-442.9,442.9v1594.5c0,248,194.9,442.9,442.9,442.9h1594.5c248,0,442.9-194.9,442.9-442.9V55187.1z"/>
</g>
<g>
	<path fill="#E3E3E2" d="M2834.6,127825c0,345.5-274.6,620.1-620.1,620.1H620.1c-345.5,0-620.1-274.6-620.1-620.1v-1594.5
		c0-345.5,274.6-620.1,620.1-620.1h1594.5c345.5,0,620.1,274.6,620.1,620.1V127825z"/>
	<g>
		<g>
			<path fill="#FFFFFF" d="M1240.2,127922.4c-44.3,0-88.6-17.7-115.2-53.1l-628.9-815l230.3-177.2l496.1,655.5l877-1346.5
				l239.2,159.5l-992.1,1523.6C1337.6,127895.9,1293.3,127922.4,1240.2,127922.4C1249,127922.4,1249,127922.4,1240.2,127922.4z"/>
		</g>
	</g>
</g>
<g>
	<path fill="#E3E3E3" d="M2834.6,109931.3c0,345.5-274.6,620.1-620.1,620.1H620.1c-345.5,0-620.1-274.6-620.1-620.1v-1594.5
		c0-345.5,274.6-620.1,620.1-620.1h1594.5c345.5,0,620.1,274.6,620.1,620.1V109931.3z M2657.5,108336.8
		c0-248-194.9-442.9-442.9-442.9H620.1c-248,0-442.9,194.9-442.9,442.9v1594.5c0,248,194.9,442.9,442.9,442.9h1594.5
		c248,0,442.9-194.9,442.9-442.9V108336.8z"/>
</g>
<g>
	<path fill="#CC5416" d="M2834.6,74675.3c0,345.5-274.6,620.1-620.1,620.1H620.1c-345.5,0-620.1-274.6-620.1-620.1v-1594.5
		c0-345.5,274.6-620.1,620.1-620.1h1594.5c345.5,0,620.1,274.6,620.1,620.1V74675.3z"/>
	<g>
		<g>
			<path fill="#FFFFFF" d="M1240.2,74772.7c-44.3,0-88.6-17.7-115.2-53.1l-628.9-815l230.3-177.2l496.1,655.5l877-1346.5
				l239.2,159.4l-992.1,1523.6C1337.6,74746.2,1293.3,74772.7,1240.2,74772.7C1249,74772.7,1249,74772.7,1240.2,74772.7z"/>
		</g>
	</g>
</g>
</svg>
