<?xml version="1.0" encoding="utf-8"?>
<!-- Generator: Adobe Illustrator 16.0.0, SVG Export Plug-In . SVG Version: 6.00 Build 0)  -->
<!DOCTYPE svg PUBLIC "-//W3C//DTD SVG 1.1//EN" "http://www.w3.org/Graphics/SVG/1.1/DTD/svg11.dtd">
<svg version="1.1" id="Layer_1" xmlns="http://www.w3.org/2000/svg" xmlns:xlink="http://www.w3.org/1999/xlink" x="0px" y="0px"
	 width="52px" height="52px" viewBox="0 0 52 52" enable-background="new 0 0 52 52" xml:space="preserve">
<g>
	<g>
		<g>
			<path fill="#F7F7F7" d="M26,51c-8.388,0-15.783-2.186-19.299-5.7C3.185,41.784,1,34.389,1,26c0-8.388,2.185-15.783,5.701-19.299
				C10.218,3.185,17.613,1,26.002,1s15.784,2.184,19.299,5.701c7.573,7.575,7.573,31.021,0,38.6C41.784,48.816,34.389,51,26,51z"/>
			<g>
				<path fill="#AAAAAA" d="M26.002,2c8.133,0,15.257,2.072,18.592,5.408C47.93,10.744,50,17.868,50,26s-2.072,15.257-5.406,18.592
					C41.257,47.928,34.132,50,26,50s-15.256-2.07-18.592-5.406C4.073,41.257,2,34.132,2,26c0-8.133,2.072-15.256,5.408-18.592
					S17.869,2,26.002,2 M26.002,0C17.996,0,9.99,1.998,5.994,5.994c-7.993,7.99-7.991,32.021,0,40.014C9.99,50.002,17.995,52,26,52
					s16.012-1.997,20.008-5.992c7.988-7.992,7.99-32.022,0-40.014C42.014,1.998,34.007,0,26.002,0L26.002,0z"/>
			</g>
		</g>
	</g>
</g>
<g>
	<g>
		<path fill="none" stroke="#666666" stroke-width="1.6" stroke-linejoin="round" stroke-miterlimit="10" d="M25.768,34.113
			l-0.001-0.414c-0.278-3.028,0.678-5.647,3.199-8.732C31.523,21.887,33,19.572,33,16.831c0-2.782-1.694-6.031-6.478-6.031
			c-0.858,0-1.906,0.146-2.924,0.431l-3.187,1.13"/>
	</g>
</g>
<circle fill="none" stroke="#666666" stroke-width="1.6" stroke-linejoin="round" stroke-miterlimit="10" cx="25.769" cy="40.77" r="0.431"/>
</svg>
