<?xml version="1.0" encoding="utf-8"?>
<!-- Generator: Adobe Illustrator 19.1.0, SVG Export Plug-In . SVG Version: 6.00 Build 0)  -->
<svg version="1.1" id="Layer_1" xmlns="http://www.w3.org/2000/svg" xmlns:xlink="http://www.w3.org/1999/xlink" x="0px" y="0px"
	 viewBox="-453 255 52 52" style="enable-background:new -453 255 52 52;" xml:space="preserve">
<style type="text/css">
	.st0{fill:#F7F7F7;}
	.st1{fill:#AAAAAA;}
	.st2{fill:#000099;}
</style>
<g>
	<g>
		<g>
			<path class="st0" d="M-427,306c-8.4,0-15.8-2.2-19.3-5.7s-5.7-10.9-5.7-19.3s2.2-15.8,5.7-19.3s10.9-5.7,19.3-5.7
				s15.8,2.2,19.3,5.7c7.6,7.6,7.6,31,0,38.6C-411.2,303.8-418.6,306-427,306z"/>
			<g>
				<path class="st1" d="M-427,257c8.1,0,15.3,2.1,18.6,5.4c3.3,3.3,5.4,10.5,5.4,18.6s-2.1,15.3-5.4,18.6
					c-3.3,3.3-10.5,5.4-18.6,5.4s-15.3-2.1-18.6-5.4c-3.3-3.3-5.4-10.5-5.4-18.6s2.1-15.3,5.4-18.6S-435.1,257-427,257 M-427,255
					c-8,0-16,2-20,6c-8,8-8,32,0,40c4,4,12,6,20,6s16-2,20-6c8-8,8-32,0-40C-411,257-419,255-427,255L-427,255z"/>
			</g>
		</g>
	</g>
</g>
<g>
	<polygon class="st2" points="-433.3,296.3 -421.3,281.1 -433.3,265.6 -429.2,265.6 -417.4,281.1 -429.5,296.4 	"/>
</g>
</svg>
