<?xml version="1.0" encoding="utf-8"?>
<!-- Generator: Adobe Illustrator 16.0.0, SVG Export Plug-In . SVG Version: 6.00 Build 0)  -->
<!DOCTYPE svg PUBLIC "-//W3C//DTD SVG 1.1//EN" "http://www.w3.org/Graphics/SVG/1.1/DTD/svg11.dtd">
<svg version="1.1" id="Layer_1" xmlns="http://www.w3.org/2000/svg" xmlns:xlink="http://www.w3.org/1999/xlink" x="0px" y="0px"
	 width="52px" height="52px" viewBox="0 0 52 52" enable-background="new 0 0 52 52" xml:space="preserve">
<g>
	<g>
		<g>
			<path fill="#F7F7F7" d="M26,51c-8.388,0-15.783-2.186-19.299-5.7C3.185,41.784,1,34.389,1,26c0-8.388,2.185-15.783,5.701-19.299
				C10.218,3.185,17.613,1,26.002,1s15.784,2.184,19.299,5.701c7.573,7.575,7.573,31.021,0,38.6C41.784,48.816,34.389,51,26,51z"/>
			<g>
				<path fill="#FFFFFF" d="M26.002,0C17.996,0,9.99,1.998,5.994,5.994c-7.993,7.99-7.991,32.021,0,40.014
					C9.99,50.002,17.995,52,26,52s16.012-1.997,20.008-5.992c7.988-7.992,7.99-32.022,0-40.014C42.014,1.998,34.007,0,26.002,0
					L26.002,0z"/>
			</g>
		</g>
	</g>
</g>
<g>
	<polygon fill="#000099" points="20.666,41.322 32.686,26.081 20.659,10.638 24.771,10.638 36.646,26.086 24.533,41.363 	"/>
</g>
</svg>
