<?xml version="1.0" encoding="utf-8"?>
<!-- Generator: Adobe Illustrator 19.1.0, SVG Export Plug-In . SVG Version: 6.00 Build 0)  -->
<svg version="1.1" id="Layer_1" xmlns="http://www.w3.org/2000/svg" xmlns:xlink="http://www.w3.org/1999/xlink" x="0px" y="0px"
	 viewBox="-485 359 52 52" style="enable-background:new -485 359 52 52;" xml:space="preserve">
<style type="text/css">
	.st0{fill:#F7F7F7;}
	.st1{fill:#AAAAAA;}
	.st2{fill:none;stroke:#000099;stroke-width:2.6;stroke-linejoin:round;stroke-miterlimit:10;}
</style>
<g>
	<g>
		<g>
			<path class="st0" d="M-459,410c-8.4,0-15.8-2.2-19.3-5.7s-5.7-10.9-5.7-19.3s2.2-15.8,5.7-19.3s10.9-5.7,19.3-5.7
				s15.8,2.2,19.3,5.7c7.6,7.6,7.6,31,0,38.6C-443.2,407.8-450.6,410-459,410z"/>
			<g>
				<path class="st1" d="M-459,361c8.1,0,15.3,2.1,18.6,5.4c3.3,3.3,5.4,10.5,5.4,18.6s-2.1,15.3-5.4,18.6
					c-3.3,3.3-10.5,5.4-18.6,5.4s-15.3-2.1-18.6-5.4c-3.3-3.3-5.4-10.5-5.4-18.6s2.1-15.3,5.4-18.6S-467.1,361-459,361 M-459,359
					c-8,0-16,2-20,6c-8,8-8,32,0,40c4,4,12,6,20,6s16-2,20-6c8-8,8-32,0-40C-443,361-451,359-459,359L-459,359z"/>
			</g>
		</g>
	</g>
</g>
<g>
	<g>
		<path class="st2" d="M-459.2,393.1v-0.4c-0.3-3,0.7-5.6,3.2-8.7c2.6-3.1,4-5.4,4-8.1c0-2.8-1.7-6-6.5-6c-0.9,0-1.9,0.1-2.9,0.4
			l-3.2,1.1"/>
	</g>
</g>
<circle class="st2" cx="-459.2" cy="399.8" r="0.4"/>
</svg>
