<?xml version="1.0" encoding="utf-8"?>
<!-- Generator: Adobe Illustrator 18.1.1, SVG Export Plug-In . SVG Version: 6.00 Build 0)  -->
<svg version="1.1" id="Layer_1" xmlns="http://www.w3.org/2000/svg" xmlns:xlink="http://www.w3.org/1999/xlink" x="0px" y="0px"
	 viewBox="0 0 32 32" enable-background="new 0 0 32 32" xml:space="preserve">
<g>
	<path fill="#EC661B" d="M32,25c0,3.9-3.1,7-7,7H7c-3.9,0-7-3.1-7-7V7c0-3.9,3.1-7,7-7h18c3.9,0,7,3.1,7,7V25z"/>
	<g>
		<g>
			<path fill="#FFFFFF" d="M14,26.1c-0.5,0-1-0.2-1.3-0.6l-7.1-9.2l2.6-2l5.6,7.4l9.9-15.2l2.7,1.8L15.4,25.4
				C15.1,25.8,14.6,26.1,14,26.1C14.1,26.1,14.1,26.1,14,26.1z"/>
		</g>
	</g>
</g>
<g>
	<path fill="#A9A9AA" d="M32-177c0,3.9-3.1,7-7,7H7c-3.9,0-7-3.1-7-7v-18c0-3.9,3.1-7,7-7h18c3.9,0,7,3.1,7,7V-177z M30-195
		c0-2.8-2.2-5-5-5H7c-2.8,0-5,2.2-5,5v18c0,2.8,2.2,5,5,5h18c2.8,0,5-2.2,5-5V-195z"/>
</g>
<g>
	<path fill="#676767" d="M32,423c0,3.9-3.1,7-7,7H7c-3.9,0-7-3.1-7-7v-18c0-3.9,3.1-7,7-7h18c3.9,0,7,3.1,7,7V423z M30,405
		c0-2.8-2.2-5-5-5H7c-2.8,0-5,2.2-5,5v18c0,2.8,2.2,5,5,5h18c2.8,0,5-2.2,5-5V405z"/>
</g>
<g>
	<path fill="#E3E3E2" d="M32,1225c0,3.9-3.1,7-7,7H7c-3.9,0-7-3.1-7-7v-18c0-3.9,3.1-7,7-7h18c3.9,0,7,3.1,7,7V1225z"/>
	<g>
		<g>
			<path fill="#FFFFFF" d="M14,1226.1c-0.5,0-1-0.2-1.3-0.6l-7.1-9.2l2.6-2l5.6,7.4l9.9-15.2l2.7,1.8l-11.2,17.2
				C15.1,1225.8,14.6,1226.1,14,1226.1C14.1,1226.1,14.1,1226.1,14,1226.1z"/>
		</g>
	</g>
</g>
<g>
	<path fill="#E3E3E3" d="M32,1023c0,3.9-3.1,7-7,7H7c-3.9,0-7-3.1-7-7v-18c0-3.9,3.1-7,7-7h18c3.9,0,7,3.1,7,7V1023z M30,1005
		c0-2.8-2.2-5-5-5H7c-2.8,0-5,2.2-5,5v18c0,2.8,2.2,5,5,5h18c2.8,0,5-2.2,5-5V1005z"/>
</g>
<g>
	<path fill="#CC5416" d="M32,625c0,3.9-3.1,7-7,7H7c-3.9,0-7-3.1-7-7v-18c0-3.9,3.1-7,7-7h18c3.9,0,7,3.1,7,7V625z"/>
	<g>
		<g>
			<path fill="#FFFFFF" d="M14,626.1c-0.5,0-1-0.2-1.3-0.6l-7.1-9.2l2.6-2l5.6,7.4l9.9-15.2l2.7,1.8l-11.2,17.2
				C15.1,625.8,14.6,626.1,14,626.1C14.1,626.1,14.1,626.1,14,626.1z"/>
		</g>
	</g>
</g>
</svg>
