<?xml version="1.0" encoding="utf-8"?>
<!-- Generator: Adobe Illustrator 16.0.0, SVG Export Plug-In . SVG Version: 6.00 Build 0)  -->
<!DOCTYPE svg PUBLIC "-//W3C//DTD SVG 1.1//EN" "http://www.w3.org/Graphics/SVG/1.1/DTD/svg11.dtd">
<svg version="1.1" id="Layer_1" xmlns="http://www.w3.org/2000/svg" xmlns:xlink="http://www.w3.org/1999/xlink" x="0px" y="0px"
	 width="32px" height="31.957px" viewBox="0 0 32 31.957" enable-background="new 0 0 32 31.957" xml:space="preserve">
<path fill="#293378" d="M28.225,3.733C25.887,1.396,21.311,0,15.98,0C10.65,0,6.072,1.395,3.735,3.733
	C1.396,6.071,0,10.649,0,15.979c0,5.33,1.396,9.908,3.735,12.246c2.337,2.338,6.915,3.732,12.245,3.732
	c5.329,0,9.906-1.395,12.245-3.732C33.259,23.188,33.259,8.767,28.225,3.733z M15.482,5.374c0.794,0,1.434,0.645,1.434,1.438
	c0,0.792-0.64,1.437-1.434,1.437c-0.793,0-1.438-0.645-1.438-1.437C14.044,6.019,14.69,5.374,15.482,5.374z M18.996,26.232h-6.032
	v-1.607h2.212V14.369h-2.212v-1.608h3.016c0.443,0,0.805,0.36,0.805,0.804v11.06h2.211V26.232z"/>
</svg>
